<svg width="493" height="408" viewBox="0 0 493 408" fill="none" xmlns="http://www.w3.org/2000/svg">
<g filter="url(#filter0_d)">
<path d="M89.4019 67H401.482V252.361H155.184L121.528 294.165L115.409 252.361H89.4019V67Z" fill="white"/>
<path d="M115.409 251.861H89.9019V67.5H400.982V251.861H155.184H154.944L154.794 252.047L121.857 292.96L115.903 252.288L115.841 251.861H115.409Z" stroke="#EDF8FF"/>
</g>
<path d="M139.48 106.917H238.184" stroke="#70BFF6"/>
<path d="M140.206 170.059H293.343" stroke="#70BFF6"/>
<path d="M140.206 122.884H188.832" stroke="#70BFF6"/>
<path d="M376.028 239.678C379.319 241.964 380.103 246.5 377.769 249.758C375.449 252.997 370.934 253.727 367.711 251.385L354.671 241.91L359.388 228.121L376.028 239.678Z" fill="url(#paint0_linear)"/>
<ellipse cx="248.708" cy="359.485" rx="147.694" ry="14.5154" fill="url(#paint1_linear)" fill-opacity="0.27"/>
<rect width="24" height="19" rx="9.5" transform="matrix(-1 0 0 1 266 340)" fill="url(#paint2_linear)"/>
<rect width="67" height="36" rx="18" transform="matrix(-1 0 0 1 342 321)" fill="url(#paint3_linear)"/>
<circle cx="372.814" cy="221.706" r="9.0721" fill="#CDEBFC"/>
<path d="M302.335 361.022C303.042 361.487 303.838 361.246 304.112 360.483C304.387 359.721 304.036 358.726 303.329 358.261L302.335 361.022ZM294.95 356.163L302.335 361.022L303.329 358.261L295.944 353.402L294.95 356.163Z" fill="#B6DFFC"/>
<path d="M276.426 340.482C275.717 340.024 274.924 340.273 274.656 341.039C274.387 341.806 274.744 342.799 275.454 343.257L276.426 340.482ZM275.454 343.257L289.573 352.388L290.545 349.613L276.426 340.482L275.454 343.257Z" fill="#B6DFFC"/>
<path d="M297.341 337.515L299.475 335.693L309.782 341.796L306.322 347.892C305.928 348.587 305.882 349.527 306.197 350.423C306.622 351.63 306.574 352.897 306.068 353.854L303.309 359.075L277.326 342.871C275.795 341.916 275.384 339.552 276.574 338.54C278.316 337.058 280.763 336.882 283.063 338.073L286.449 339.826C286.816 340.016 287.197 340.133 287.575 340.171L288.363 340.249C291.719 340.583 294.87 339.624 297.341 337.515Z" fill="#025496"/>
<ellipse rx="0.938265" ry="0.75339" transform="matrix(0.793782 0.608202 -0.464372 0.88564 299.031 341.629)" fill="#90D1FD"/>
<ellipse rx="0.938265" ry="0.75339" transform="matrix(0.793782 0.608202 -0.464372 0.88564 295.047 343.254)" fill="#90D1FD"/>
<ellipse rx="0.938265" ry="0.75339" transform="matrix(0.793782 0.608202 -0.464372 0.88564 289.923 343.07)" fill="#90D1FD"/>
<path d="M296.743 339.068C296.913 338.863 296.898 338.523 296.709 338.309C296.521 338.095 296.23 338.087 296.06 338.293L296.743 339.068ZM294.872 343.588L294.68 344.059C294.887 344.187 295.132 344.125 295.257 343.914C295.381 343.702 295.348 343.405 295.178 343.214L294.872 343.588ZM298.94 342.148C299.189 342.227 299.431 342.06 299.481 341.774C299.531 341.488 299.37 341.192 299.121 341.113L298.94 342.148ZM291.87 340.353L291.918 340.89C292.002 340.887 292.081 340.857 292.148 340.804L291.87 340.353ZM286.854 339.299C286.603 339.322 286.43 339.579 286.467 339.875C286.504 340.171 286.738 340.393 286.989 340.371L286.854 339.299ZM289.294 343.288C289.257 343.578 289.431 343.865 289.682 343.928C289.934 343.992 290.167 343.809 290.204 343.52L289.294 343.288ZM296.06 338.293C295.568 338.886 294.892 339.859 294.471 340.856C294.262 341.353 294.099 341.892 294.075 342.416C294.049 342.955 294.17 343.518 294.566 343.962L295.178 343.214C295.048 343.068 294.978 342.866 294.993 342.552C295.008 342.225 295.116 341.826 295.302 341.386C295.671 340.51 296.286 339.619 296.743 339.068L296.06 338.293ZM299.121 341.113C298.069 340.778 296.444 340.311 294.987 340C294.26 339.844 293.563 339.725 292.995 339.682C292.711 339.66 292.448 339.657 292.223 339.681C292.013 339.705 291.774 339.758 291.593 339.902L292.148 340.804C292.146 340.805 292.2 340.77 292.374 340.751C292.533 340.734 292.743 340.734 293.002 340.754C293.517 340.793 294.173 340.904 294.886 341.056C296.308 341.36 297.905 341.819 298.94 342.148L299.121 341.113ZM295.063 343.117C294.004 342.463 292.333 341.488 290.757 340.69C289.97 340.292 289.199 339.933 288.536 339.68C287.896 339.436 287.284 339.261 286.854 339.299L286.989 340.371C287.216 340.351 287.664 340.454 288.309 340.699C288.931 340.937 289.671 341.28 290.444 341.671C291.99 342.454 293.637 343.414 294.68 344.059L295.063 343.117ZM290.204 343.52C290.26 343.075 290.425 342.395 290.727 341.834C291.031 341.271 291.424 340.909 291.918 340.89L291.822 339.816C290.921 339.85 290.316 340.516 289.939 341.216C289.56 341.919 289.363 342.738 289.294 343.288L290.204 343.52Z" fill="url(#paint4_linear)"/>
<path d="M379.296 311.621C386.674 308.737 390.932 304.749 393.06 290.702L353.852 284.598C343.144 280.837 339.66 286.189 337.562 288.739C335.463 291.289 292.375 334.718 296.802 336.543C299.498 337.654 314.92 347.177 318.376 345.344C343.075 319.63 350.516 312.324 353.375 304.186C359.618 304.707 375.284 313.189 379.296 311.621Z" fill="url(#paint5_linear)"/>
<rect x="330.357" y="297.069" width="89.9953" height="66.0449" rx="33.0225" fill="url(#paint6_linear)"/>
<path d="M383.412 303.871C389.514 299.184 392.252 294.491 389.562 281.827H350.953C339.422 281.827 337.884 287.456 336.731 290.27C335.578 293.084 314.616 347.176 319.474 347.407C322.432 347.548 338.344 350.015 341.039 347.407C356.058 317.97 356.058 313.127 356.058 305.301C362.22 303.871 380.094 306.42 383.412 303.871Z" fill="url(#paint7_linear)"/>
<path d="M359.311 250.992C360.564 247.861 362.308 244.949 364.477 242.366L366.62 239.815C368.043 238.122 370.018 236.986 372.197 236.609C380.812 235.118 389.02 240.772 390.285 249.422C393.073 268.487 396.068 298.92 387.693 303.601C375.355 310.495 365.194 298.883 361.202 295.617C357.211 292.351 347.05 282.19 352.856 280.739C358.662 279.287 359.025 251.708 359.025 251.708L359.311 250.992Z" fill="url(#paint8_linear)"/>
<path d="M362.457 245.893C363.458 242.152 365.733 238.878 368.888 236.634C370.374 235.577 372.152 234.96 373.971 234.854C382.957 234.331 391.064 240.637 392.367 249.543C393.337 256.18 394.225 263.1 394.225 266.223C394.225 272.998 363.077 273.817 361.991 273.843C361.957 273.844 361.945 273.844 361.911 273.844C359.113 273.844 357.024 271.271 357.599 268.534L361.962 247.739L362.457 245.893Z" fill="white"/>
<path d="M365.369 242.516C368.366 238.135 374.427 237.168 378.638 240.4C381.963 242.95 383.163 247.417 381.218 251.128C377.753 257.743 371.73 267.388 365.194 269.489C355.033 272.755 329.994 269.489 329.994 269.489L326.728 254.249L356.847 254.974L365.369 242.516Z" fill="white"/>
<path d="M372.452 224.491C368.097 223.04 364.105 217.597 366.646 212.879C367.734 209.976 371 207.073 376.806 207.436C382.612 207.799 387.33 211.065 388.781 215.783C390.233 220.5 393.136 223.403 397.491 225.58C398.654 226.162 403.443 227.553 407.651 231.024C411.319 234.048 411.157 237.131 412.006 240.459C413.458 246.147 421.404 244.662 424.344 248.805C432.327 260.054 429.944 266.753 419.264 269.127C409.466 271.304 397.128 267.312 394.587 261.869C391.733 255.752 384.064 257.514 380.072 249.894C377.442 244.872 381.887 244.806 374.629 237.918C370.272 233.783 377.895 226.306 372.452 224.491Z" fill="#025496"/>
<path d="M340.624 205.813L359.387 228.121L354.67 241.91L335.371 209.696L340.624 205.813Z" fill="url(#paint9_linear)"/>
<path d="M280.053 185.074H341.469V231.975H280.053V185.074Z" fill="url(#paint10_linear)" stroke="#FFF7F7"/>
<path d="M314.311 260.56L311.952 256.89C311.952 256.89 311.226 256.164 311.589 255.801C311.951 255.438 312.677 256.165 312.677 256.165C313.403 256.528 314.855 257.979 314.855 257.979L318.121 259.068L319.209 259.431H321.024L319.935 257.253L319.572 256.528H319.935L321.024 256.89L323.927 259.431H327.556V263.785H323.927L316.859 262.313C315.809 262.094 314.891 261.462 314.311 260.56Z" fill="#FDFFFF"/>
<path d="M318.698 349.97L320.475 347.147L332.534 347.872L330.464 355.359C330.229 356.209 330.41 357.12 330.952 357.815C331.682 358.752 331.941 359.973 331.655 361.126L330.091 367.44L299.497 364.833C297.684 364.678 296.679 362.658 297.651 361.119C299.087 358.844 301.59 357.464 304.281 357.464H308.109C308.534 357.464 308.956 357.387 309.353 357.237L310.189 356.921C313.707 355.593 316.695 353.152 318.698 349.97Z" fill="#025496"/>
<ellipse cx="320.766" cy="350.775" rx="0.814398" ry="0.725768" fill="#90D1FD"/>
<ellipse cx="318.323" cy="354.404" rx="0.814398" ry="0.725768" fill="#90D1FD"/>
<ellipse cx="314.251" cy="357.307" rx="0.814398" ry="0.725768" fill="#90D1FD"/>
<path d="M318 350.142C318.05 349.87 317.871 349.609 317.6 349.558C317.329 349.507 317.067 349.686 317.017 349.958L318 350.142ZM318.322 354.767L318.378 355.264C318.621 355.237 318.809 355.038 318.822 354.794C318.835 354.55 318.67 354.332 318.431 354.279L318.322 354.767ZM320.944 351.243C321.202 351.144 321.331 350.855 321.233 350.597C321.134 350.339 320.845 350.21 320.587 350.308L320.944 351.243ZM314.658 354.041L314.974 354.429C315.043 354.373 315.095 354.3 315.126 354.217L314.658 354.041ZM310.253 356.208C310.047 356.392 310.029 356.708 310.212 356.914C310.396 357.12 310.712 357.139 310.918 356.955L310.253 356.208ZM313.781 357.842C313.875 358.101 314.162 358.235 314.422 358.14C314.681 358.045 314.815 357.758 314.72 357.499L313.781 357.842ZM317.017 349.958C316.876 350.709 316.747 351.862 316.826 352.883C316.866 353.39 316.959 353.902 317.154 354.322C317.351 354.747 317.683 355.137 318.214 355.255L318.431 354.279C318.311 354.252 318.181 354.161 318.061 353.902C317.938 353.637 317.859 353.259 317.823 352.805C317.753 351.902 317.869 350.842 318 350.142L317.017 349.958ZM320.587 350.308C319.628 350.675 318.167 351.28 316.9 351.906C316.268 352.218 315.671 352.542 315.207 352.849C314.975 353.002 314.765 353.158 314.596 353.314C314.438 353.46 314.272 353.646 314.189 353.866L315.126 354.217C315.125 354.219 315.152 354.162 315.275 354.048C315.389 353.943 315.55 353.82 315.758 353.683C316.172 353.409 316.726 353.107 317.343 352.802C318.573 352.194 320.003 351.602 320.944 351.243L320.587 350.308ZM318.267 354.27C317.171 354.392 315.465 354.63 313.906 354.949C313.127 355.108 312.375 355.289 311.749 355.488C311.148 355.68 310.585 355.913 310.253 356.208L310.918 356.955C311.076 356.815 311.452 356.633 312.054 356.441C312.631 356.257 313.345 356.084 314.106 355.928C315.628 355.618 317.303 355.384 318.378 355.264L318.267 354.27ZM314.72 357.499C314.582 357.119 314.432 356.49 314.438 355.87C314.445 355.24 314.609 354.727 314.974 354.429L314.342 353.654C313.64 354.227 313.446 355.105 313.438 355.86C313.43 356.625 313.61 357.375 313.781 357.842L314.72 357.499Z" fill="url(#paint11_linear)"/>
<path d="M329.177 368.962C330.002 369.039 330.733 368.433 330.81 367.608C330.888 366.783 330.282 366.052 329.457 365.975L329.177 368.962ZM321.44 368.236L329.177 368.962L329.457 365.975L321.72 365.249L321.44 368.236Z" fill="#B6DFFC"/>
<path d="M298.084 363.07C297.258 363.003 296.535 363.618 296.468 364.444C296.401 365.27 297.016 365.993 297.842 366.06L298.084 363.07ZM297.842 366.06L315.758 367.512L316.001 364.522L298.084 363.07L297.842 366.06Z" fill="#B6DFFC"/>
<circle cx="94.8452" cy="150.101" r="30.8452" fill="url(#paint12_linear)"/>
<rect x="79.9938" y="148.197" width="29.7027" height="17.517" fill="white"/>
<path d="M84.5632 148.197V143.627C84.5632 137.948 89.1665 133.345 94.8449 133.345V133.345C100.523 133.345 105.127 137.948 105.127 143.627V148.197" stroke="white" stroke-width="5"/>
<path d="M357.936 270.941C362.291 270.699 370.637 269.489 374.629 259.329" stroke="#8DD0FD"/>
<path d="M356.479 305.149C356.806 304.207 357.116 301.271 355.742 297.069" stroke="#8DD0FD"/>
<defs>
<filter id="filter0_d" x="0.401886" y="0" width="492.08" height="407.165" filterUnits="userSpaceOnUse" color-interpolation-filters="sRGB">
<feFlood flood-opacity="0" result="BackgroundImageFix"/>
<feColorMatrix in="SourceAlpha" type="matrix" values="0 0 0 0 0 0 0 0 0 0 0 0 0 0 0 0 0 0 127 0"/>
<feOffset dx="1" dy="23"/>
<feGaussianBlur stdDeviation="45"/>
<feColorMatrix type="matrix" values="0 0 0 0 0.663403 0 0 0 0 0.844787 0 0 0 0 0.970833 0 0 0 1 0"/>
<feBlend mode="normal" in2="BackgroundImageFix" result="effect1_dropShadow"/>
<feBlend mode="normal" in="SourceGraphic" in2="effect1_dropShadow" result="shape"/>
</filter>
<linearGradient id="paint0_linear" x1="381.887" y1="249.894" x2="355.396" y2="233.693" gradientUnits="userSpaceOnUse">
<stop stop-color="#2BA0F1"/>
<stop offset="1" stop-color="#89D0FE"/>
</linearGradient>
<linearGradient id="paint1_linear" x1="248.708" y1="344.969" x2="249.071" y2="387.064" gradientUnits="userSpaceOnUse">
<stop stop-color="#CDEBFC"/>
<stop offset="1" stop-color="#B5E4FF" stop-opacity="0"/>
</linearGradient>
<linearGradient id="paint2_linear" x1="12" y1="0" x2="12" y2="19" gradientUnits="userSpaceOnUse">
<stop stop-color="#CEEAFA"/>
<stop offset="1" stop-color="#F0F4EF"/>
</linearGradient>
<linearGradient id="paint3_linear" x1="33.5" y1="0" x2="33.5" y2="36" gradientUnits="userSpaceOnUse">
<stop stop-color="#CEEAFA"/>
<stop offset="1" stop-color="#F0F4EF"/>
</linearGradient>
<linearGradient id="paint4_linear" x1="294.725" y1="337.397" x2="289.984" y2="343.584" gradientUnits="userSpaceOnUse">
<stop stop-color="#269DF1"/>
<stop offset="1" stop-color="#E1F2FF"/>
</linearGradient>
<linearGradient id="paint5_linear" x1="386.599" y1="295.008" x2="301.204" y2="327.86" gradientUnits="userSpaceOnUse">
<stop stop-color="#2CA1F1"/>
<stop offset="1" stop-color="#C1E6FF"/>
</linearGradient>
<linearGradient id="paint6_linear" x1="375.355" y1="297.069" x2="375.355" y2="363.114" gradientUnits="userSpaceOnUse">
<stop stop-color="#CEEAFA"/>
<stop offset="1" stop-color="#F0F4EF"/>
</linearGradient>
<linearGradient id="paint7_linear" x1="384.818" y1="287.456" x2="320.851" y2="348.423" gradientUnits="userSpaceOnUse">
<stop stop-color="white"/>
<stop offset="1" stop-color="#ECF7FF"/>
</linearGradient>
<linearGradient id="paint8_linear" x1="388.419" y1="268.038" x2="354.308" y2="290.174" gradientUnits="userSpaceOnUse">
<stop stop-color="#269DEF"/>
<stop offset="1" stop-color="#98D7FF"/>
</linearGradient>
<linearGradient id="paint9_linear" x1="356.847" y1="236.104" x2="341.969" y2="210.339" gradientUnits="userSpaceOnUse">
<stop stop-color="#82CDFE"/>
<stop offset="1" stop-color="white"/>
</linearGradient>
<linearGradient id="paint10_linear" x1="310.761" y1="184.574" x2="310.761" y2="232.475" gradientUnits="userSpaceOnUse">
<stop stop-color="#FFBA90"/>
<stop offset="1" stop-color="#FFE5B7"/>
</linearGradient>
<linearGradient id="paint11_linear" x1="315.676" y1="350.05" x2="315.676" y2="357.67" gradientUnits="userSpaceOnUse">
<stop stop-color="#269DF1"/>
<stop offset="1" stop-color="#E1F2FF"/>
</linearGradient>
<linearGradient id="paint12_linear" x1="94.8452" y1="119.255" x2="94.8452" y2="180.946" gradientUnits="userSpaceOnUse">
<stop stop-color="#279EF0"/>
<stop offset="1" stop-color="#8DD2FE"/>
</linearGradient>
</defs>
</svg>
